<svg width="24" height="24" viewBox="0 0 24 24" fill="none" xmlns="http://www.w3.org/2000/svg">
<path opacity="0.4" d="M3 22.001L3 6.71821C3 4.20747 3 2.95209 3.7912 2.32922C4.5824 1.70636 5.7474 2.04453 8.0775 2.72087L13.078 4.17219C14.484 4.58033 15.187 4.78441 15.593 5.34062C16 5.89684 16 6.65441 16 8.16954L16 22.001H10C10.9428 22.001 11.4142 22.001 11.7071 21.7081C12 21.4152 12 20.9438 12 20.001V19.001C12 18.0582 12 17.5868 11.7071 17.2939C11.4142 17.001 10.9428 17.001 10 17.001H9C8.0572 17.001 7.5858 17.001 7.2929 17.2939C7 17.5868 7 18.0582 7 19.001V20.001C7 20.9438 7 21.4152 7.2929 21.7081C7.5858 22.001 8.0572 22.001 9 22.001L3 22.001Z" fill="#251D4C"/>
<path fill-rule="evenodd" clip-rule="evenodd" d="M5.4568 1.29429C6.11236 1.38206 6.91084 1.60248 7.86287 1.87759L8.2272 1.98318L13.329 3.46404C13.996 3.6576 14.56 3.82133 15.004 4.01081C15.478 4.21285 15.888 4.47238 16.199 4.89781C16.508 5.32075 16.636 5.79255 16.694 6.31082C16.742 6.73148 16.7489 7.23529 16.7498 7.82508L16.75 8.12716V9.4427L18.365 9.92722L18.406 9.93947C19.058 10.135 19.608 10.3 20.041 10.4868C20.501 10.6853 20.901 10.9372 21.206 11.3473C21.512 11.7573 21.638 12.2133 21.696 12.7109C21.741 13.1012 21.7485 13.5653 21.7497 14.1028L21.75 14.4343L21.75 21.2508H22C22.414 21.2508 22.75 21.5866 22.75 22.0008C22.75 22.415 22.414 22.7508 22 22.7508L2 22.7508C1.5858 22.7508 1.25 22.415 1.25 22.0008C1.25 21.5866 1.5858 21.2508 2 21.2508H2.25L2.25 6.65969C2.25 5.45395 2.25 4.46918 2.3562 3.71147C2.4661 2.9269 2.7091 2.22642 3.3273 1.73975C3.9522 1.24778 4.6845 1.1909 5.4568 1.29429ZM5.2577 2.78103C4.6672 2.70197 4.4214 2.78744 4.2551 2.91834C4.0821 3.05454 3.9295 3.29318 3.8416 3.9197C3.76676 4.45403 3.75304 5.15333 3.75055 6.1114L3.75 21.2508H6.3009C6.2982 21.2332 6.2957 21.2156 6.2933 21.198C6.2499 20.8752 6.25 20.4784 6.25 20.0455L6.25034 18.7009C6.2517 18.3674 6.25858 18.0618 6.2933 17.8036C6.3411 17.4481 6.4535 17.0724 6.7626 16.7634C7.0716 16.4543 7.4473 16.3419 7.8028 16.2941C8.1256 16.2507 8.5224 16.2507 8.9553 16.2508L10.0448 16.2508C10.4776 16.2507 10.8744 16.2507 11.1972 16.2941C11.5527 16.3419 11.9284 16.4543 12.237 16.7634C12.546 17.0724 12.659 17.4481 12.707 17.8036C12.75 18.1264 12.75 18.5232 12.75 18.956V20.0455L12.7497 20.3007C12.7483 20.6342 12.7414 20.9398 12.707 21.198L12.699 21.2508H15.25L15.25 8.16936C15.25 7.39453 15.249 6.87612 15.204 6.47981C15.161 6.10146 15.085 5.91637 14.988 5.7831C14.892 5.65231 14.747 5.53169 14.416 5.39061C14.065 5.24096 13.589 5.10148 12.868 4.89229L7.8685 3.44096C6.6796 3.09588 5.87 2.863 5.2577 2.78103ZM16.75 11.0087L16.75 21.2508L20.25 21.2508L20.25 14.4769C20.25 13.7424 20.249 13.2558 20.206 12.8843C20.165 12.5323 20.093 12.3641 20.003 12.2427C19.913 12.1213 19.772 12.0045 19.447 11.8641C19.103 11.716 18.638 11.575 17.934 11.364L16.75 11.0087ZM10.1756 17.7509L9 17.7508C8.5074 17.7508 8.2134 17.7524 8.0027 17.7807C7.9061 17.7937 7.8578 17.809 7.836 17.818C7.8309 17.82 7.8276 17.8216 7.8257 17.8227L7.8219 17.8265C7.8209 17.8284 7.8192 17.8317 7.8172 17.8368C7.8082 17.8585 7.7929 17.9069 7.7799 18.0035C7.75867 18.1615 7.75247 18.3664 7.75069 18.6668L7.75069 20.3348C7.75247 20.6352 7.75867 20.8401 7.7799 20.9981C7.7929 21.0947 7.8082 21.1431 7.8172 21.1648C7.8192 21.1699 7.8209 21.1732 7.8219 21.1751L7.8232 21.1776L7.836 21.1836C7.8578 21.1926 7.9061 21.2079 8.0027 21.2209C8.17687 21.2443 8.40798 21.2494 8.76121 21.2505L10.0517 21.2508C10.5134 21.2506 10.7941 21.2482 10.9973 21.2209C11.0939 21.2079 11.1423 21.1926 11.164 21.1836L11.1768 21.1776L11.1781 21.1751C11.1792 21.1732 11.1808 21.1699 11.1828 21.1648C11.1918 21.1431 11.2071 21.0947 11.2201 20.9981C11.2484 20.7874 11.25 20.4934 11.25 20.0008V19.0008C11.25 18.5082 11.2484 18.2142 11.2201 18.0035C11.2071 17.9069 11.1918 17.8585 11.1828 17.8368C11.1808 17.8317 11.1792 17.8284 11.1781 17.8265L11.1743 17.8227C11.1724 17.8216 11.1691 17.82 11.164 17.818C11.1423 17.809 11.0939 17.7937 10.9973 17.7807C10.8129 17.7559 10.5648 17.7516 10.1756 17.7509ZM7.25 9.00079C7.25 8.58657 7.5858 8.25079 8 8.25079L11 8.25079C11.4142 8.25079 11.75 8.58658 11.75 9.00079C11.75 9.415 11.4142 9.75079 11 9.75079L8 9.75079C7.5858 9.75079 7.25 9.415 7.25 9.00079ZM7.25 13.0008C7.25 12.5866 7.5858 12.2508 8 12.2508L11 12.2508C11.4142 12.2508 11.75 12.5866 11.75 13.0008C11.75 13.415 11.4142 13.7508 11 13.7508L8 13.7508C7.5858 13.7508 7.25 13.415 7.25 13.0008Z" fill="white"/>
</svg>
