<svg width="24" height="24" viewBox="0 0 24 24" fill="none" xmlns="http://www.w3.org/2000/svg">
<path opacity="0.4" d="M2.35139 13.2135C1.99837 10.9162 1.82186 9.76763 2.25617 8.74938C2.69047 7.73112 3.65403 7.03443 5.58114 5.64106L7.02099 4.6C9.41829 2.86667 10.6169 2 12 2C13.3831 2 14.5817 2.86667 16.979 4.6L18.4189 5.64106C20.346 7.03443 21.3095 7.73112 21.7438 8.74938C22.1781 9.76763 22.0016 10.9162 21.6486 13.2135L21.3476 15.1724C20.8471 18.4289 20.5969 20.0572 19.429 21.0286C18.2611 22 16.5537 22 13.1388 22H10.8612C7.44633 22 5.73891 22 4.571 21.0286C3.40309 20.0572 3.15287 18.4289 2.65243 15.1724L2.35139 13.2135Z" fill="#251D4C"/>
<path fill-rule="evenodd" clip-rule="evenodd" d="M12.0006 1.25C12.8665 1.25009 13.6405 1.52714 14.4762 1.99609C15.2861 2.45057 16.2145 3.12108 17.3815 3.96484L18.8903 5.05664C19.8267 5.7337 20.5752 6.27388 21.1393 6.77441C21.7219 7.29127 22.1578 7.80694 22.4342 8.45508C22.7112 9.10461 22.778 9.77048 22.7409 10.5381C22.705 11.2789 22.5674 12.1726 22.3961 13.2871L22.0807 15.3389C21.8374 16.9225 21.6437 18.1836 21.359 19.166C21.0646 20.182 20.6501 20.9889 19.9088 21.6055C19.1708 22.2193 18.2914 22.4926 17.2174 22.623C16.1725 22.75 14.8541 22.75 13.1891 22.75H10.8112C9.14629 22.75 7.82778 22.75 6.78286 22.623C5.70891 22.4926 4.82953 22.2193 4.09146 21.6055C3.35021 20.9889 2.93565 20.182 2.64126 19.166C2.35659 18.1836 2.16293 16.9225 1.91958 15.3389L1.60415 13.2871C1.43287 12.1726 1.29529 11.2789 1.25943 10.5381C1.22226 9.7705 1.28906 9.10459 1.56607 8.45508C1.84251 7.80694 2.27845 7.29127 2.86099 6.77441C3.42514 6.27388 4.17358 5.7337 5.11001 5.05664L6.6188 3.96484C7.78578 3.12106 8.71417 2.45058 9.52407 1.99609C10.3599 1.52703 11.1346 1.25 12.0006 1.25ZM12.0006 2.75C11.4838 2.75 10.9668 2.90628 10.2584 3.30371C9.53256 3.71105 8.67334 4.33115 7.4606 5.20801L6.02115 6.24902C5.04572 6.95429 4.35861 7.45156 3.85708 7.89648C3.36749 8.33087 3.10381 8.67382 2.94595 9.04394C2.78881 9.41256 2.72672 9.8305 2.75747 10.4658C2.78913 11.1193 2.91359 11.9358 3.09243 13.0996L3.39419 15.0586C3.64745 16.7066 3.82734 17.8712 4.08169 18.749C4.32946 19.604 4.62389 20.0973 5.05044 20.4521C5.48018 20.8096 6.03926 21.0214 6.9645 21.1338C7.90839 21.2484 9.13519 21.25 10.861 21.25H13.1393C14.8654 21.25 16.0928 21.2484 17.0368 21.1338C17.9617 21.0214 18.5202 20.8095 18.9499 20.4521C19.3764 20.0973 19.6708 19.604 19.9186 18.749C20.173 17.8713 20.3528 16.7066 20.6061 15.0586L20.9079 13.0996C21.0867 11.9358 21.2112 11.1193 21.2428 10.4658C21.2736 9.83047 21.2115 9.41257 21.0543 9.04394C20.8965 8.67382 20.6328 8.33087 20.1432 7.89648C19.6417 7.45157 18.9545 6.95426 17.9792 6.24902L16.5397 5.20801C15.3271 4.33124 14.4687 3.71106 13.7428 3.30371C13.0345 2.90622 12.5175 2.75009 12.0006 2.75ZM14.0006 17.25C14.4147 17.2502 14.7506 17.5859 14.7506 18C14.7506 18.4141 14.4147 18.7498 14.0006 18.75H10.0006C9.58642 18.75 9.25064 18.4142 9.25064 18C9.25064 17.5858 9.58642 17.25 10.0006 17.25H14.0006Z" fill="white"/>
</svg>
