<svg width="24" height="24" viewBox="0 0 24 24" fill="none" xmlns="http://www.w3.org/2000/svg">
<path opacity="0.4" d="M15.7526 3.33145C15.2428 3.19562 14.7139 3.10719 14.1706 3.07107C12.7435 2.97621 11.2536 2.97641 9.82939 3.07107C5.64639 3.34913 2.31441 6.72837 2.04024 10.9707C1.98659 11.8009 1.98659 12.6607 2.04024 13.4909C2.1401 15.036 2.82343 16.4666 3.62791 17.6746C4.09501 18.5203 3.78674 19.5758 3.30021 20.4978C2.94941 21.1626 2.77401 21.495 2.91484 21.7351C3.05567 21.9752 3.37025 21.9829 3.99941 21.9982C5.24365 22.0285 6.08268 21.6757 6.74868 21.1846C7.1264 20.9061 7.31527 20.7668 7.44544 20.7508C7.5756 20.7348 7.83174 20.8403 8.34392 21.0512C8.80431 21.2409 9.33896 21.3579 9.82939 21.3905C11.2536 21.4852 12.7435 21.4854 14.1706 21.3905C18.3536 21.1125 21.6856 17.7332 21.9598 13.4909C22.0134 12.6607 22.0134 11.8009 21.9598 10.9707C21.8867 9.84096 21.5969 8.77241 21.1318 7.80734C20.4903 8.53845 19.5491 9 18.5 9C16.567 9 15 7.433 15 5.5C15 4.681 15.2813 3.9277 15.7526 3.33145Z" fill="#251D4C"/>
<path fill-rule="evenodd" clip-rule="evenodd" d="M9.7791 2.32227C11.0025 2.24094 11.2812 2.22752 12.534 2.28418C12.9476 2.30304 13.2674 2.65375 13.2488 3.06738C13.2301 3.48117 12.8794 3.80192 12.4656 3.7832C11.2811 3.72964 11.0601 3.7408 9.87871 3.81934C6.07945 4.072 3.03928 7.14469 2.78887 11.0195C2.73732 11.8174 2.73731 12.6446 2.78887 13.4424C2.87677 14.8025 3.4831 16.1045 4.25176 17.2588C4.26315 17.2759 4.27403 17.2935 4.28398 17.3115C4.95225 18.5214 4.4628 19.9017 3.96367 20.8477C3.8819 21.0026 3.81423 21.1301 3.75859 21.2412C3.83405 21.2438 3.91912 21.2457 4.01738 21.248C5.08612 21.2741 5.76396 20.9789 6.30351 20.5811L6.32109 20.5684C6.49477 20.4403 6.6518 20.3235 6.78203 20.2393C6.89506 20.1661 7.10204 20.0379 7.35332 20.0068C7.61656 19.9745 7.87225 20.0636 7.9998 20.1084C8.16296 20.1658 8.37056 20.2509 8.61015 20.3496L8.62969 20.3574C9.00901 20.5136 9.46287 20.6149 9.87871 20.6426C11.2698 20.735 12.727 20.7352 14.1209 20.6426C17.9202 20.3899 20.9603 17.3172 21.2107 13.4424C21.2623 12.6446 21.2623 11.8174 21.2107 11.0195C21.184 10.6063 21.4977 10.2495 21.9109 10.2227C22.3241 10.196 22.6809 10.5088 22.7078 10.9219C22.7635 11.7842 22.7635 12.6767 22.7078 13.5391C22.4099 18.1487 18.787 21.8349 14.2205 22.1387C12.7603 22.2357 11.2364 22.2355 9.7791 22.1387C9.21437 22.1011 8.59959 21.968 8.0584 21.7451C7.82031 21.6471 7.65811 21.5804 7.53984 21.5371C7.45856 21.593 7.35025 21.6722 7.19316 21.7881C6.40081 22.3723 5.40072 22.7825 3.98125 22.748C3.96611 22.7477 3.95062 22.7474 3.93535 22.7471C3.66159 22.7405 3.36966 22.7335 3.13164 22.6875C2.84487 22.632 2.48944 22.4929 2.26738 22.1143C2.02598 21.7024 2.12288 21.2858 2.2166 21.0234C2.30507 20.7758 2.45837 20.4852 2.61504 20.1885C2.62219 20.1749 2.62936 20.161 2.63652 20.1475C3.10278 19.2638 3.23252 18.542 2.9832 18.0605C2.1509 16.8041 1.40272 15.2554 1.2918 13.5391C1.23607 12.6767 1.23606 11.7842 1.2918 10.9219C1.58992 6.31243 5.21276 2.62597 9.7791 2.32227ZM15.4998 14.25C15.914 14.25 16.2498 14.5858 16.2498 15C16.2498 15.4142 15.914 15.75 15.4998 15.75L8.4998 15.75C8.08559 15.75 7.7498 15.4142 7.7498 15C7.7498 14.5858 8.08559 14.25 8.4998 14.25L15.4998 14.25ZM11.9998 9.25C12.414 9.25 12.7498 9.58579 12.7498 10C12.7498 10.4142 12.414 10.75 11.9998 10.75H8.4998C8.08559 10.75 7.7498 10.4142 7.7498 10C7.7498 9.58579 8.08559 9.25 8.4998 9.25H11.9998ZM18.4998 1.25C20.847 1.25 22.7498 3.15279 22.7498 5.5C22.7498 7.84721 20.847 9.75 18.4998 9.75C16.1526 9.75 14.2498 7.84721 14.2498 5.5C14.2498 3.15279 16.1526 1.25 18.4998 1.25ZM18.4998 2.75C16.981 2.75 15.7498 3.98122 15.7498 5.5C15.7498 7.01878 16.981 8.25 18.4998 8.25C20.0186 8.25 21.2498 7.01878 21.2498 5.5C21.2498 3.98122 20.0186 2.75 18.4998 2.75Z" fill="white"/>
</svg>
