<svg width="22" height="22" viewBox="0 0 22 22" fill="none" xmlns="http://www.w3.org/2000/svg">
<path fill-rule="evenodd" clip-rule="evenodd" d="M10.7502 0C16.6881 0 21.5002 4.81364 21.5002 10.75C21.5002 16.6864 16.6881 21.5 10.7502 21.5C10.3359 21.5 10.0002 21.1642 10.0002 20.75C10.0002 20.3358 10.3359 20 10.7502 20C15.8596 20 20.0002 15.8581 20.0002 10.75C20.0002 5.64192 15.8596 1.5 10.7502 1.5C10.3359 1.5 10.0002 1.16421 10.0002 0.75C10.0002 0.335786 10.3359 0 10.7502 0ZM3.88394 18.0332C4.13997 17.7076 4.61106 17.6512 4.93668 17.9072C5.83601 18.6143 6.87619 19.1599 7.99234 19.54C8.38433 19.6736 8.59364 20.1001 8.46012 20.4922C8.32654 20.884 7.90088 21.0932 7.50894 20.96C6.24845 20.5307 5.05513 19.9077 4.00992 19.0859C3.68436 18.83 3.62806 18.3588 3.88394 18.0332ZM0.612461 11.7666C1.01954 11.6906 1.41134 11.9592 1.48746 12.3662C1.68568 13.4285 2.09466 14.4657 2.68375 15.4131C2.90248 15.7648 2.79429 16.2276 2.44254 16.4463C2.0908 16.6649 1.62804 16.5568 1.40934 16.2051C0.726236 15.1064 0.246723 13.895 0.0128514 12.6416C-0.0630614 12.2345 0.205422 11.8427 0.612461 11.7666ZM6.20426 14.7353C8.55865 12.2386 12.8987 12.1018 15.3048 14.7451C15.5837 15.0514 15.5613 15.5259 15.255 15.8047C14.9487 16.0835 14.4743 16.0612 14.1955 15.7549C12.4118 13.7954 9.08692 13.8656 7.29605 15.7646C7.0119 16.066 6.53687 16.08 6.23551 15.7959C5.93417 15.5117 5.92015 15.0367 6.20426 14.7353ZM10.7423 5.5C12.3934 5.5 13.7179 6.85094 13.7179 8.5C13.7179 10.1491 12.3934 11.5 10.7423 11.5C9.09146 11.4998 7.76676 10.149 7.76676 8.5C7.76676 6.85104 9.09146 5.50016 10.7423 5.5ZM10.7423 7C9.93539 7.00016 9.26676 7.66387 9.26676 8.5C9.26676 9.33613 9.93539 9.99984 10.7423 10C11.5494 10 12.2179 9.33622 12.2179 8.5C12.2179 7.66377 11.5494 7 10.7423 7ZM1.40934 5.29492C1.62801 4.94327 2.09083 4.83523 2.44254 5.05371C2.79423 5.27241 2.90234 5.73518 2.68375 6.08691C2.09463 7.03429 1.68569 8.07143 1.48746 9.13379C1.41148 9.54097 1.01965 9.80937 0.612461 9.7334C0.205437 9.65729 -0.0631063 9.26549 0.0128514 8.8584C0.246765 7.60498 0.726196 6.39354 1.40934 5.29492ZM7.50894 0.540039C7.90091 0.406825 8.32663 0.616849 8.46012 1.00879C8.59341 1.4007 8.38415 1.82634 7.99234 1.95996C6.88006 2.33878 5.83744 2.89586 4.93277 3.59668C4.60533 3.85036 4.13372 3.79034 3.88004 3.46289C3.62682 3.13549 3.68662 2.6647 4.01383 2.41113C5.05371 1.60552 6.24458 0.970657 7.50894 0.540039Z" fill="white"/>
</svg>
