<svg width="14" height="16" viewBox="0 0 14 16" fill="none" xmlns="http://www.w3.org/2000/svg">
<g clip-path="url(#clip0_693_7136)">
<path d="M8.7131 14.1745C8.46327 14.7409 8.29813 15.3556 8.23486 16.0003L13.5217 14.8511C13.7715 14.2847 13.9365 13.6699 13.9999 13.0253L8.7131 14.1745Z" fill="#303339"/>
<path d="M13.5213 11.4079C13.7711 10.8416 13.9362 10.2268 13.9995 9.58212L9.88124 10.4778V8.75601L13.5212 7.96504C13.771 7.39872 13.9361 6.78388 13.9994 6.13924L9.88111 7.03412V0.842159C9.25007 1.20447 8.68964 1.68674 8.23407 2.2556V7.39222L6.58704 7.7502V0C5.95599 0.36218 5.39557 0.844578 4.94 1.41345V8.10805L1.25475 8.90882C1.00492 9.47515 0.839656 10.09 0.776266 10.7346L4.94 9.82981V11.9981L0.477744 12.9677C0.227917 13.534 0.0627779 14.1489 -0.000488281 14.7935L4.67025 13.7785C5.05047 13.6977 5.37726 13.4678 5.58972 13.1515L6.44631 11.8529V11.8526C6.53523 11.7183 6.58704 11.5563 6.58704 11.3818V9.47183L8.23407 9.11386V12.5574L13.5212 11.4077L13.5213 11.4079Z" fill="#303339"/>
</g>
<defs>
<clipPath id="clip0_693_7136">
<rect width="14" height="16" fill="white"/>
</clipPath>
</defs>
</svg>
