<svg width="16" height="16" viewBox="0 0 16 16" fill="none" xmlns="http://www.w3.org/2000/svg">
<path fill-rule="evenodd" clip-rule="evenodd" d="M11.4209 1.25589C12.0532 1.17296 12.6405 1.14129 13.1309 1.18851C13.5977 1.2335 14.0868 1.35975 14.3985 1.69534C14.7007 2.021 14.8003 2.51058 14.8262 2.97659C14.8535 3.46808 14.8035 4.05477 14.7041 4.68655C14.5047 5.95346 14.0914 7.47805 13.5947 8.93948C13.0978 10.4016 12.5097 11.8228 11.9551 12.8828C11.6791 13.4103 11.4018 13.8675 11.1377 14.1973C11.0065 14.3611 10.8653 14.5113 10.7149 14.6231C10.5719 14.7293 10.363 14.8441 10.1123 14.833C9.70958 14.8152 9.40368 14.5938 9.17873 14.3018C8.9633 14.0221 8.79283 13.6432 8.64162 13.2051C8.33828 12.3262 8.05287 11.0298 7.68556 9.35941C7.60665 9.00056 7.54009 8.87874 7.48048 8.81448C7.4678 8.80083 7.4523 8.78721 7.43263 8.77249C7.41207 8.76152 7.39225 8.74943 7.37306 8.73538C7.29679 8.69281 7.17767 8.64337 6.97658 8.58694C6.76807 8.52845 6.45206 8.46403 6.05373 8.38284C5.93118 8.35787 5.80053 8.33124 5.6631 8.30276C5.0956 8.18518 4.43537 8.03976 3.80763 7.85257C3.18661 7.66737 2.56171 7.43097 2.08205 7.11722C1.61218 6.80983 1.17129 6.35198 1.16701 5.70413C1.16542 5.45735 1.28069 5.25236 1.39064 5.10843C1.50596 4.95753 1.65917 4.81525 1.82716 4.68362C2.16458 4.41926 2.62894 4.14411 3.16408 3.8721C4.23933 3.32556 5.67552 2.7554 7.14845 2.28128C8.6204 1.80749 10.1526 1.42225 11.4209 1.25589ZM13.0352 2.1846C12.6504 2.14753 12.1463 2.16899 11.5508 2.2471C10.3632 2.40288 8.89296 2.77028 7.45412 3.23343C6.01633 3.69626 4.63257 4.2476 3.6172 4.7637C3.10716 5.02295 2.70818 5.26408 2.44435 5.47073C2.31174 5.57463 2.22994 5.65777 2.18556 5.71585C2.17886 5.72463 2.17298 5.73228 2.16896 5.73831C2.1866 5.8787 2.29571 6.06171 2.6299 6.2803C2.98776 6.51435 3.50242 6.71822 4.09377 6.89456C4.67845 7.0689 5.30394 7.20677 5.86623 7.32327C5.98672 7.34824 6.10577 7.37291 6.2217 7.39651C6.63033 7.47971 6.99917 7.5548 7.24611 7.62405C7.35555 7.65476 7.46264 7.68822 7.56545 7.72659L9.6465 5.64651C9.84176 5.45125 10.1583 5.45125 10.3535 5.64651C10.5488 5.84178 10.5488 6.15828 10.3535 6.35355L8.36818 8.33792C8.51651 8.57386 8.59719 8.84929 8.66213 9.14456C9.03548 10.8424 9.30729 12.0687 9.58693 12.8789C9.72701 13.2847 9.85513 13.5413 9.97072 13.6914C10.035 13.7748 10.0817 13.8092 10.1133 13.8233C10.1147 13.8222 10.1166 13.8215 10.1182 13.8203C10.1733 13.7794 10.254 13.7015 10.3574 13.5723C10.5632 13.3153 10.806 12.9233 11.0694 12.42C11.5935 11.4182 12.1618 10.0471 12.6475 8.61819C13.1334 7.18858 13.5293 5.72251 13.7168 4.53128C13.8108 3.93412 13.849 3.4249 13.8272 3.03226C13.8039 2.61435 13.7169 2.43193 13.6651 2.37601C13.6137 2.32067 13.4436 2.22397 13.0352 2.1846Z" fill="white"/>
</svg>
