<svg width="22" height="21" viewBox="0 0 22 21" fill="none" xmlns="http://www.w3.org/2000/svg">
<path fill-rule="evenodd" clip-rule="evenodd" d="M7.4541 0.0105692C7.87303 0.0686037 8.13537 0.334256 8.61133 0.81721L8.61914 0.825022C9.18414 1.40002 9.94095 1.71662 10.752 1.71662C11.563 1.71662 12.3188 1.39998 12.8828 0.826975C13.3627 0.338123 13.628 0.0696025 14.0478 0.0115457C14.4708 -0.0464478 14.799 0.1431 15.252 0.407053L16.9756 1.4051C17.4336 1.6701 17.7647 1.86164 17.9287 2.25764C18.0906 2.64651 17.9952 3.02232 17.8203 3.70295C17.4213 5.27093 18.401 6.95947 19.9609 7.3885L19.9756 7.3924C20.6316 7.5734 20.993 7.67343 21.249 8.01643C21.501 8.35042 21.501 8.71449 21.501 9.26447V11.2362C21.501 11.786 21.5009 12.1502 21.2471 12.4871C20.9931 12.8271 20.6316 12.9272 19.9756 13.1082L19.9609 13.1121C18.402 13.5411 17.4232 15.2297 17.8232 16.7987L17.8271 16.8143C17.9981 17.4893 18.0917 17.8608 17.9277 18.2508C17.7667 18.6394 17.4381 18.8307 16.9834 19.0946L15.2539 20.0965C14.855 20.3274 14.5541 20.5027 14.2012 20.5028H14.2002C14.1512 20.5028 14.1008 20.499 14.0488 20.491C13.629 20.433 13.3656 20.1654 12.8877 19.6785C12.3197 19.1006 11.5629 18.784 10.751 18.784C9.93898 18.784 9.18216 19.1006 8.61816 19.6746C8.13823 20.1636 7.87303 20.432 7.45312 20.4901C7.03014 20.5481 6.70199 20.3585 6.24902 20.0946L4.52539 19.0965C4.06739 18.8315 3.73627 18.64 3.57227 18.244C3.41045 17.8551 3.50575 17.4793 3.68066 16.7987C4.07966 15.2307 3.10004 13.5421 1.54004 13.1131L1.52539 13.1092C0.869391 12.9282 0.507953 12.8282 0.251953 12.4852C5.00015e-05 12.1512 0 11.7871 0 11.2371L0 9.26545C0 8.71551 -1.45245e-05 8.35145 0.253906 8.01447C0.507906 7.67447 0.869391 7.57438 1.52539 7.39338L1.54004 7.38947C3.10004 6.96047 4.08064 5.27195 3.68164 3.70295C3.50875 3.02038 3.41434 2.64553 3.57519 2.25569C3.73819 1.86169 4.06934 1.66912 4.52734 1.40412L6.25098 0.404124C6.70792 0.140157 7.03413 -0.0474262 7.4541 0.0105692ZM13.9521 1.87971C13.1042 2.74266 11.9679 3.2176 10.751 3.2176C9.53401 3.2176 8.39682 2.74269 7.54883 1.87873L7.23926 1.56916C7.16826 1.60816 7.08483 1.656 7.00684 1.701L5.27832 2.70393C5.18932 2.75493 5.09358 2.81025 5.01758 2.85725C5.04558 2.98525 5.08979 3.16276 5.13379 3.33576C5.73955 5.71754 4.30618 8.18559 1.9375 8.83772L1.92285 8.84162C1.77093 8.8836 1.61492 8.92676 1.50098 8.96174C1.49898 9.05168 1.49902 9.16353 1.49902 9.2674L1.49902 11.2391C1.49902 11.3431 1.49898 11.4557 1.50098 11.5457C1.61495 11.5817 1.77092 11.6239 1.92285 11.6658L1.93848 11.6697C4.30615 12.322 5.73877 14.7899 5.13281 17.1717C5.08984 17.3386 5.04361 17.5183 5.01562 17.6492L5.0166 17.6473C5.0916 17.6933 5.18737 17.7486 5.27637 17.7996L7.00098 18.7987C7.08095 18.8446 7.16631 18.8944 7.23828 18.9344C7.32717 18.8485 7.442 18.7327 7.54785 18.6248C8.39585 17.7618 9.53398 17.285 10.751 17.285C11.968 17.285 13.1061 17.7608 13.9541 18.6248C14.0649 18.7377 14.1768 18.8515 14.2637 18.9344C14.3356 18.8944 14.42 18.8456 14.499 18.8006L16.2246 17.8006C16.3146 17.7486 16.4103 17.6933 16.4853 17.6473C16.4584 17.5223 16.4151 17.3514 16.3721 17.1844L16.3682 17.1697C15.7612 14.7887 17.1945 12.3208 19.5625 11.6688L19.5762 11.6649C19.7281 11.6229 19.8841 11.5797 19.998 11.5447C20 11.4547 20 11.3421 20 11.2381V9.26643C20 9.16258 20 9.0507 19.998 8.96076C19.8841 8.92478 19.7281 8.88262 19.5762 8.84065L19.5615 8.83674C17.1936 8.18477 15.7604 5.71669 16.3662 3.33479C16.4092 3.16779 16.4554 2.98727 16.4834 2.85627C16.4084 2.81027 16.3126 2.75493 16.2236 2.70393L14.499 1.70588C14.419 1.65988 14.3337 1.60916 14.2617 1.56916C14.1727 1.65516 14.0581 1.77172 13.9521 1.87971ZM10.6123 5.85237C10.8323 5.50147 11.2955 5.39413 11.6455 5.61311C11.9965 5.83312 12.1028 6.29533 11.8838 6.64631L10.1016 9.49983L12.748 9.49983C13.021 9.49983 13.2723 9.64757 13.4043 9.88557C13.5362 10.1235 13.5288 10.4154 13.3838 10.6463L10.8838 14.6463C10.7418 14.8743 10.4971 14.9988 10.2471 14.9988C10.1116 14.9986 9.97512 14.9622 9.85156 14.8856C9.50056 14.6656 9.3933 14.2034 9.6123 13.8524L11.3955 10.9998H8.74805C8.47511 10.9998 8.22377 10.8511 8.0918 10.6131C7.96006 10.3752 7.9674 10.0832 8.1123 9.85237L10.6123 5.85237Z" fill="white"/>
<path opacity="0.4" d="M19.761 12.3891C20.283 12.2451 20.544 12.1741 20.647 12.0361C20.75 11.8991 20.75 11.6781 20.75 11.2361V9.26408C20.75 8.82208 20.75 8.60108 20.647 8.46408C20.544 8.32608 20.283 8.25505 19.761 8.11105C17.811 7.57405 16.59 5.49406 17.093 3.51706C17.232 2.97306 17.301 2.70106 17.235 2.54206C17.169 2.38206 16.979 2.27204 16.6 2.05304L14.875 1.05407C14.503 0.83807 14.317 0.730045 14.15 0.753045C13.983 0.776045 13.794 0.968068 13.417 1.35207C11.958 2.83707 9.54398 2.83704 8.08398 1.35104C7.70698 0.968043 7.51895 0.776045 7.35195 0.753045C7.18495 0.730045 6.99895 0.838045 6.62695 1.05305L4.90195 2.05304C4.52295 2.27204 4.33299 2.38206 4.26699 2.54206C4.20099 2.70106 4.27001 2.97306 4.40801 3.51706C4.91101 5.49406 3.68996 7.57405 1.73896 8.11105C1.21696 8.25505 0.956027 8.32608 0.853027 8.46408C0.750027 8.60108 0.75 8.82208 0.75 9.26408L0.75 11.2361C0.75 11.6781 0.750027 11.8991 0.853027 12.0361C0.956027 12.1741 1.21696 12.2451 1.73896 12.3891C3.68896 12.9261 4.91003 15.0061 4.40703 16.9831C4.26803 17.5271 4.19904 17.7991 4.26504 17.9581C4.33104 18.1181 4.521 18.2281 4.9 18.4471L6.625 19.4461C6.997 19.6621 7.183 19.7701 7.35 19.7471C7.517 19.7241 7.70601 19.5321 8.08301 19.1481C9.54301 17.6621 11.959 17.6621 13.419 19.1481C13.796 19.5321 13.984 19.7241 14.151 19.7471C14.318 19.7701 14.504 19.6621 14.877 19.4461L16.601 18.4471C16.981 18.2271 17.17 18.1181 17.236 17.9581C17.303 17.7991 17.233 17.5271 17.095 16.9831C16.591 15.0061 17.811 12.9261 19.761 12.3891Z" fill="#251D4C"/>
</svg>
