<svg width="22" height="22" viewBox="0 0 22 22" fill="none" xmlns="http://www.w3.org/2000/svg">
<path opacity="0.4" d="M15.2421 4.81069C14.2996 4.75 13.1558 4.75 11.75 4.75H10.25C5.77166 4.75 3.53249 4.75 2.14124 5.92157C0.75 7.09315 0.75 8.97876 0.75 12.75C0.75 16.5212 0.75 18.4069 2.14124 19.5784C3.53249 20.75 5.77166 20.75 10.25 20.75C14.7283 20.75 16.9675 20.75 18.3588 19.5784C19.75 18.4069 19.75 16.5212 19.75 12.75C19.75 8.97876 19.75 7.09315 18.5784 5.92157C18.4485 5.7916 18.3097 5.67606 18.1606 5.57332C17.9384 5.88969 17.7764 6.32729 17.5079 7.05297L17.25 7.75L16.9921 7.05297C16.6539 6.13898 16.4848 5.68198 16.1514 5.34861C15.9328 5.13 15.661 4.98203 15.2421 4.81069Z" fill="#251D4C"/>
<path d="M10.25 4C10.6642 4 11 4.33579 11 4.75C11 5.16421 10.6642 5.5 10.25 5.5C7.9929 5.5 6.36348 5.50105 5.12207 5.6416C3.89104 5.781 3.15539 6.04765 2.62402 6.49512C2.11131 6.92693 1.8205 7.49964 1.66406 8.47949C1.50183 9.49599 1.5 10.8396 1.5 12.75C1.5 14.6604 1.50183 16.004 1.66406 17.0205C1.8205 18.0004 2.11131 18.5731 2.62402 19.0049C3.15539 19.4523 3.89104 19.719 5.12207 19.8584C6.36348 19.9989 7.9929 20 10.25 20C12.5071 20 14.1365 19.9989 15.3779 19.8584C16.609 19.719 17.3446 19.4523 17.876 19.0049C18.3887 18.5731 18.6795 18.0004 18.8359 17.0205C18.9982 16.004 19 14.6604 19 12.75C19 11.5743 18.9994 10.6066 18.959 9.78711C18.9386 9.3734 19.2582 9.02138 19.6719 9.00098C20.0854 8.98076 20.4375 9.29936 20.458 9.71289C20.5004 10.5733 20.5 11.5773 20.5 12.7344V12.8154C20.5 14.6454 20.4997 16.1095 20.3164 17.2578C20.125 18.4562 19.7201 19.4127 18.8418 20.1523C17.9821 20.8762 16.9024 21.1951 15.5469 21.3486C14.2112 21.4999 12.4966 21.5 10.2988 21.5H10.2012C8.00342 21.5 6.28881 21.4999 4.95312 21.3486C3.59762 21.1951 2.51792 20.8762 1.6582 20.1523C0.779876 19.4127 0.374988 18.4562 0.183594 17.2578C0.000261545 16.1095 -2.58684e-05 14.6454 0 12.8154L0 12.6846C-2.58684e-05 10.8546 0.000261545 9.39049 0.183594 8.24219C0.374988 7.04385 0.779876 6.0873 1.6582 5.34766C2.51792 4.62375 3.59763 4.30488 4.95312 4.15137C6.2888 4.00014 8.00344 3.99999 10.2012 4H10.25ZM10.5391 9.51269C10.6702 9.12 11.0945 8.90812 11.4873 9.03906C11.8802 9.17005 12.0928 9.5944 11.9619 9.9873L9.96191 15.9873C9.83093 16.3803 9.40565 16.5929 9.01269 16.4619C8.61989 16.3308 8.4081 15.9056 8.53906 15.5127L10.5391 9.51269ZM5.76074 10.1816C6.0745 9.91155 6.54803 9.94711 6.81836 10.2607C7.08846 10.5745 7.05289 11.048 6.73926 11.3184L5.51269 12.375C5.31305 12.5471 5.18145 12.6623 5.09082 12.75C5.18145 12.8377 5.31305 12.9529 5.51269 13.125L6.73926 14.1816C7.05289 14.452 7.08845 14.9255 6.81836 15.2393C6.54803 15.5529 6.07449 15.5885 5.76074 15.3184L4.53418 14.2607C4.52372 14.2517 4.5124 14.2434 4.50195 14.2344C4.2715 14.0358 4.045 13.8396 3.88184 13.6553C3.70137 13.4514 3.5 13.1545 3.5 12.75C3.5 12.3455 3.70136 12.0486 3.88184 11.8447C4.04489 11.6605 4.27166 11.465 4.50195 11.2666C4.5124 11.2576 4.52372 11.2483 4.53418 11.2393L5.76074 10.1816ZM13.6816 10.2607C13.952 9.94711 14.4255 9.91155 14.7393 10.1816L15.9658 11.2393C15.9763 11.2483 15.9876 11.2576 15.998 11.2666C16.2283 11.465 16.4551 11.6605 16.6182 11.8447C16.7986 12.0486 17 12.3455 17 12.75C17 13.1545 16.7986 13.4514 16.6182 13.6553C16.455 13.8396 16.2285 14.0358 15.998 14.2344C15.9876 14.2434 15.9763 14.2517 15.9658 14.2607L14.7393 15.3184C14.4255 15.5885 13.952 15.5529 13.6816 15.2393C13.4116 14.9255 13.4471 14.452 13.7607 14.1816L14.9873 13.125C15.1869 12.9529 15.3185 12.8377 15.4092 12.75C15.3185 12.6623 15.187 12.5471 14.9873 12.375L13.7607 11.3184C13.4471 11.048 13.4115 10.5745 13.6816 10.2607ZM17.25 0C17.5637 -9.17218e-08 17.8441 0.195207 17.9531 0.489258L18.2109 1.18652C18.573 2.16487 18.6888 2.43094 18.8789 2.62109C19.0691 2.81124 19.3351 2.92704 20.3135 3.28906L21.0107 3.54687C21.3048 3.65592 21.5 3.93634 21.5 4.25C21.5 4.56365 21.3048 4.84408 21.0107 4.95312L20.3135 5.21094C19.3351 5.57296 19.0691 5.68876 18.8789 5.87891C18.6888 6.06906 18.573 6.33513 18.2109 7.31348L17.9531 8.01074C17.8441 8.30479 17.5637 8.5 17.25 8.5C16.9363 8.5 16.6559 8.30479 16.5469 8.01074L16.2891 7.31348C15.927 6.33513 15.8112 6.06906 15.6211 5.87891C15.4309 5.68875 15.1649 5.57296 14.1865 5.21094L13.4893 4.95312C13.1952 4.84408 13 4.56365 13 4.25C13 3.93634 13.1952 3.65592 13.4893 3.54687L14.1865 3.28906C15.1649 2.92704 15.4309 2.81124 15.6211 2.62109C15.8112 2.43094 15.927 2.16487 16.2891 1.18652L16.5469 0.489258C16.6559 0.195207 16.9363 9.17218e-08 17.25 0ZM17.25 2.83301C17.0953 3.16136 16.9202 3.44304 16.6816 3.68164C16.443 3.92024 16.1614 4.09529 15.833 4.25C16.1614 4.4047 16.443 4.57976 16.6816 4.81836C16.9202 5.05696 17.0953 5.33864 17.25 5.66699C17.4047 5.33864 17.5798 5.05696 17.8184 4.81836C18.057 4.57976 18.3386 4.4047 18.667 4.25C18.3386 4.09529 18.057 3.92024 17.8184 3.68164C17.5798 3.44304 17.4047 3.16136 17.25 2.83301Z" fill="white"/>
</svg>
